# 3ds Max Wavefront OBJ Exporter v0.97b - (c)2007 guruware
# File Created: 22.01.2016 21:29:34

mtllib Lightbeam02.mtl

#
# object Lightbeam
#

v  11.7748 0.0000 -9.3577
v  4.5593 200.0000 -3.3033
v  5.8650 200.0000 0.2841
v  15.2841 0.0000 0.2841
v  2.8888 0.0000 -14.4880
v  1.2532 200.0000 -5.2121
v  -7.2159 0.0000 -12.7063
v  -2.5064 200.0000 -4.5492
v  -13.8113 0.0000 -4.8462
v  -4.9603 200.0000 -1.6247
v  -13.8113 0.0000 5.4144
v  -4.9603 200.0000 2.1929
v  -7.2159 0.0000 13.2745
v  -2.5064 200.0000 5.1173
v  2.8888 0.0000 15.0562
v  1.2532 200.0000 5.7803
v  11.7748 0.0000 9.9259
v  4.5593 200.0000 3.8715
# 18 vertices

vn 0.7652 0.0470 -0.6421
vn 0.9989 0.0470 -0.0000
vn 0.1735 0.0470 -0.9837
vn -0.4994 0.0470 -0.8651
vn -0.9387 0.0470 -0.3416
vn -0.9387 0.0470 0.3416
vn -0.4994 0.0470 0.8651
vn 0.1735 0.0470 0.9837
vn 0.7652 0.0470 0.6421
vn 0.0000 -1.0000 -0.0000
vn 0.0000 1.0000 -0.0000
# 11 vertex normals

vt 0.7663 0.7446 0.0000
vt 0.0102 0.6979 0.0000
vt 0.0102 0.5987 0.0000
vt 0.7663 0.6455 0.0000
vt 0.7663 0.8437 0.0000
vt 0.0102 0.7970 0.0000
vt 0.7663 0.9428 0.0000
vt 0.0102 0.8961 0.0000
vt 0.7663 0.1499 0.0000
vt 0.0102 0.1032 0.0000
vt 0.0102 0.0041 0.0000
vt 0.7663 0.0508 0.0000
vt 0.7663 0.2490 0.0000
vt 0.0102 0.2023 0.0000
vt 0.7663 0.3481 0.0000
vt 0.0102 0.3014 0.0000
vt 0.7663 0.4472 0.0000
vt 0.0102 0.4005 0.0000
vt 0.7663 0.5464 0.0000
vt 0.0102 0.4996 0.0000
vt 0.7714 0.3216 0.0000
vt 0.7848 0.2502 0.0000
vt 0.8440 0.2036 0.0000
vt 0.9553 0.3843 0.0000
vt 0.9213 0.2036 0.0000
vt 0.9805 0.2502 0.0000
vt 0.9939 0.3216 0.0000
vt 0.8827 0.4091 0.0000
vt 0.8101 0.3843 0.0000
vt 0.0826 0.9173 0.0000
vt 0.0970 0.9406 0.0000
vt 0.0920 0.9672 0.0000
vt 0.0142 0.9406 0.0000
vt 0.0700 0.9845 0.0000
vt 0.0412 0.9845 0.0000
vt 0.0192 0.9672 0.0000
vt 0.0286 0.9173 0.0000
vt 0.0556 0.9081 0.0000
# 38 texture coords

g Lightbeam
usemtl Material__26
s 1
f 1/1/1 2/2/1 3/3/2 4/4/2 
f 5/5/3 6/6/3 2/2/1 1/1/1 
f 7/7/4 8/8/4 6/6/3 5/5/3 
f 9/9/5 10/10/5 8/11/4 7/12/4 
f 11/13/6 12/14/6 10/10/5 9/9/5 
f 13/15/7 14/16/7 12/14/6 11/13/6 
f 15/17/8 16/18/8 14/16/7 13/15/7 
f 17/19/9 18/20/9 16/18/8 15/17/8 
f 4/4/2 3/3/2 18/20/9 17/19/9 
f 15/21/10 13/22/10 11/23/10 1/24/10 
f 11/23/10 9/25/10 7/26/10 1/24/10 
f 7/26/10 5/27/10 1/24/10 
f 1/24/10 4/28/10 17/29/10 15/21/10 
f 2/30/11 6/31/11 8/32/11 16/33/11 
f 8/32/11 10/34/11 12/35/11 16/33/11 
f 12/35/11 14/36/11 16/33/11 
f 16/33/11 18/37/11 3/38/11 2/30/11 
# 15 polygons - 2 triangles

