# 3ds Max Wavefront OBJ Exporter v0.97b - (c)2007 guruware
# File Created: 20.01.2016 17:15:11

mtllib Nest003.mtl

#
# object RoadKillOut
#

v  16.7311 -0.5748 -28.2029
v  18.6381 3.3013 -31.5060
v  36.3086 3.3013 -6.7671
v  32.5655 -0.5748 -6.0344
v  -5.4279 -0.5748 -32.1102
v  -6.0902 3.3013 -35.8663
v  -25.3563 -0.5748 -20.3214
v  -28.3293 3.3013 -22.7106
v  -31.9973 -0.5748 6.6026
v  -35.7404 3.3013 7.3353
v  -16.1629 -0.5748 28.7711
v  -18.0700 3.3013 32.0742
v  5.9961 -0.5748 32.6783
v  6.6584 3.3013 36.4345
v  25.9245 -0.5748 20.8896
v  28.8975 3.3013 23.2788
v  18.6381 8.8883 -31.5060
v  36.3086 8.8883 -6.7671
v  -6.0902 8.8883 -35.8663
v  -28.3293 8.8883 -22.7106
v  -35.7404 8.8883 7.3353
v  -18.0700 8.8883 32.0742
v  6.6584 8.8883 36.4345
v  28.8975 8.8883 23.2788
v  17.7466 14.0402 -29.9618
v  34.5587 14.0402 -6.4246
v  -5.7806 14.0402 -34.1103
v  -26.9394 14.0402 -21.5936
v  -33.9905 14.0402 6.9928
v  -17.1784 14.0402 30.5300
v  6.3487 14.0402 34.6785
v  27.5076 14.0402 22.1618
v  15.4194 17.4459 -25.9310
v  29.9910 17.4459 -5.5305
v  -4.9723 17.4459 -29.5266
v  -23.3114 17.4459 -18.6780
v  -29.4228 17.4459 6.0987
v  -14.8512 17.4459 26.4992
v  5.5405 17.4459 30.0948
v  23.8796 17.4459 19.2462
v  8.5076 -0.5748 -13.9594
v  16.4248 -0.5748 -2.8752
v  -2.5719 -0.5748 -15.9130
v  -12.5361 -0.5748 -10.0186
v  -15.8566 -0.5748 3.4434
v  -7.9394 -0.5748 14.5276
v  3.1401 -0.5748 16.4812
v  13.1043 -0.5748 10.5868
v  0.2841 -0.5748 0.2841
v  13.9912 7.0535 -23.4574
v  27.1878 7.0535 -4.9819
v  -4.4764 7.0535 -26.7137
v  -21.0849 7.0535 -16.8888
v  -26.6197 7.0535 5.5500
v  -13.4230 7.0535 24.0255
v  5.0445 7.0535 27.2819
v  21.6531 7.0535 17.4569
v  0.2841 7.0535 0.2841
# 58 vertices

vn 0.2496 -0.8871 -0.3882
vn 0.4980 -0.3501 -0.7934
vn 0.9209 -0.3476 -0.1766
vn 0.4604 -0.8834 -0.0877
vn -0.0819 -0.8903 -0.4479
vn -0.1672 -0.3524 -0.9208
vn -0.3741 -0.8863 -0.2730
vn -0.7508 -0.3495 -0.5604
vn -0.4604 -0.8834 0.0877
vn -0.9209 -0.3476 0.1766
vn -0.2496 -0.8871 0.3882
vn -0.4980 -0.3501 0.7934
vn 0.0819 -0.8903 0.4479
vn 0.1672 -0.3524 0.9208
vn 0.3741 -0.8863 0.2730
vn 0.7508 -0.3495 0.5604
vn 0.5254 0.1596 -0.8357
vn 0.9696 0.1590 -0.1858
vn -0.1764 0.1601 -0.9712
vn -0.7915 0.1594 -0.5899
vn -0.9696 0.1590 0.1858
vn -0.5254 0.1596 0.8357
vn 0.1764 0.1601 0.9712
vn 0.7915 0.1594 0.5899
vn 0.4416 0.5616 -0.6997
vn 0.8146 0.5586 -0.1559
vn -0.1477 0.5643 -0.8122
vn -0.6646 0.5609 -0.4936
vn -0.8146 0.5586 0.1559
vn -0.4416 0.5616 0.6997
vn 0.1477 0.5643 0.8122
vn 0.6646 0.5609 0.4936
vn -0.0621 0.9916 0.1131
vn -0.1034 0.9944 0.0208
vn 0.0254 0.9891 0.1452
vn 0.0946 0.9923 0.0801
vn 0.1034 0.9944 -0.0208
vn 0.0621 0.9916 -0.1131
vn -0.0254 0.9891 -0.1452
vn -0.0946 0.9923 -0.0801
vn 0.0000 -1.0000 -0.0000
vn -0.3669 0.7285 0.5785
vn -0.6795 0.7221 0.1299
vn 0.1217 0.7339 0.6683
vn 0.5521 0.7271 0.4081
vn 0.6795 0.7221 -0.1299
vn 0.3669 0.7285 -0.5784
vn -0.1217 0.7339 -0.6683
vn -0.5521 0.7271 -0.4081
vn 0.0000 1.0000 -0.0000
# 50 vertex normals

vt 0.9780 0.6634 0.0000
vt 0.9393 0.6623 0.0000
vt 0.9488 0.4573 0.0000
vt 0.9879 0.4571 0.0000
vt 0.9665 0.8420 0.0000
vt 0.9239 0.8496 0.0000
vt 0.7571 0.2558 0.0000
vt 0.7164 0.2580 0.0000
vt 0.6943 0.0634 0.0000
vt 0.7407 0.0699 0.0000
vt 0.7644 0.4665 0.0000
vt 0.7253 0.4668 0.0000
vt 0.7545 0.6728 0.0000
vt 0.7158 0.6717 0.0000
vt 0.7429 0.8514 0.0000
vt 0.7003 0.8590 0.0000
vt 0.9806 0.2464 0.0000
vt 0.9400 0.2485 0.0000
vt 0.9178 0.0540 0.0000
vt 0.9643 0.0604 0.0000
vt 0.8992 0.6585 0.0000
vt 0.9095 0.4565 0.0000
vt 0.8762 0.8455 0.0000
vt 0.6773 0.2607 0.0000
vt 0.6486 0.0702 0.0000
vt 0.6860 0.4660 0.0000
vt 0.6756 0.6679 0.0000
vt 0.6526 0.8549 0.0000
vt 0.9008 0.2513 0.0000
vt 0.8722 0.0608 0.0000
vt 0.8610 0.6541 0.0000
vt 0.8717 0.4559 0.0000
vt 0.8323 0.8348 0.0000
vt 0.6388 0.2646 0.0000
vt 0.6050 0.0835 0.0000
vt 0.6482 0.4654 0.0000
vt 0.6374 0.6635 0.0000
vt 0.6088 0.8442 0.0000
vt 0.8624 0.2552 0.0000
vt 0.8285 0.0741 0.0000
vt 0.8186 0.6486 0.0000
vt 0.8309 0.4563 0.0000
vt 0.7880 0.8139 0.0000
vt 0.5985 0.2713 0.0000
vt 0.5645 0.1051 0.0000
vt 0.6073 0.4657 0.0000
vt 0.5951 0.6580 0.0000
vt 0.5645 0.8233 0.0000
vt 0.8220 0.2618 0.0000
vt 0.7880 0.0957 0.0000
vt 0.3084 0.8683 0.0000
vt 0.3682 0.9744 0.0000
vt 0.1672 0.9918 0.0000
vt 0.2079 0.8770 0.0000
vt 0.3626 0.8050 0.0000
vt 0.4766 0.8479 0.0000
vt 0.3626 0.7193 0.0000
vt 0.4766 0.6764 0.0000
vt 0.2893 0.6474 0.0000
vt 0.3301 0.5326 0.0000
vt 0.1888 0.6560 0.0000
vt 0.1290 0.5499 0.0000
vt 0.1346 0.7193 0.0000
vt 0.0206 0.6764 0.0000
vt 0.1346 0.8050 0.0000
vt 0.0206 0.8479 0.0000
vt 0.2486 0.7622 0.0000
vt 0.5567 0.1779 0.0000
vt 0.4661 0.2028 0.0000
vt 0.3612 0.0913 0.0000
vt 0.4041 0.0082 0.0000
vt 0.5470 0.3730 0.0000
vt 0.4628 0.3312 0.0000
vt 0.4062 0.5147 0.0000
vt 0.3730 0.4272 0.0000
vt 0.1752 0.5147 0.0000
vt 0.2181 0.4316 0.0000
vt 0.0226 0.3451 0.0000
vt 0.1132 0.3201 0.0000
vt 0.0323 0.1499 0.0000
vt 0.1165 0.1917 0.0000
vt 0.1732 0.0082 0.0000
vt 0.2063 0.0958 0.0000
vt 0.2897 0.2615 0.0000
# 84 texture coords

g RoadKillOut
usemtl Material__2
s 1
f 1/1/1 2/2/2 3/3/3 4/4/4 
f 5/5/5 6/6/6 2/2/2 1/1/1 
f 7/7/7 8/8/8 6/9/6 5/10/5 
f 9/11/9 10/12/10 8/8/8 7/7/7 
f 11/13/11 12/14/12 10/12/10 9/11/9 
f 13/15/13 14/16/14 12/14/12 11/13/11 
f 15/17/15 16/18/16 14/19/14 13/20/13 
f 4/4/4 3/3/3 16/18/16 15/17/15 
f 2/2/2 17/21/17 18/22/18 3/3/3 
f 6/6/6 19/23/19 17/21/17 2/2/2 
f 8/8/8 20/24/20 19/25/19 6/9/6 
f 10/12/10 21/26/21 20/24/20 8/8/8 
f 12/14/12 22/27/22 21/26/21 10/12/10 
f 14/16/14 23/28/23 22/27/22 12/14/12 
f 16/18/16 24/29/24 23/30/23 14/19/14 
f 3/3/3 18/22/18 24/29/24 16/18/16 
f 17/21/17 25/31/25 26/32/26 18/22/18 
f 19/23/19 27/33/27 25/31/25 17/21/17 
f 20/24/20 28/34/28 27/35/27 19/25/19 
f 21/26/21 29/36/29 28/34/28 20/24/20 
f 22/27/22 30/37/30 29/36/29 21/26/21 
f 23/28/23 31/38/31 30/37/30 22/27/22 
f 24/29/24 32/39/32 31/40/31 23/30/23 
f 18/22/18 26/32/26 32/39/32 24/29/24 
f 25/31/25 33/41/33 34/42/34 26/32/26 
f 27/33/27 35/43/35 33/41/33 25/31/25 
f 28/34/28 36/44/36 35/45/35 27/35/27 
f 29/36/29 37/46/37 36/44/36 28/34/28 
f 30/37/30 38/47/38 37/46/37 29/36/29 
f 31/38/31 39/48/39 38/47/38 30/37/30 
f 32/39/32 40/49/40 39/50/39 31/40/31 
f 26/32/26 34/42/34 40/49/40 32/39/32 
f 41/51/41 1/52/1 4/53/4 42/54/41 
f 43/55/41 5/56/5 1/52/1 41/51/41 
f 44/57/41 7/58/7 5/56/5 43/55/41 
f 45/59/41 9/60/9 7/58/7 44/57/41 
f 46/61/41 11/62/11 9/60/9 45/59/41 
f 47/63/41 13/64/13 11/62/11 46/61/41 
f 48/65/41 15/66/15 13/64/13 47/63/41 
f 42/54/41 4/53/4 15/66/15 48/65/41 
f 42/54/41 49/67/41 41/51/41 
f 41/51/41 49/67/41 43/55/41 
f 43/55/41 49/67/41 44/57/41 
f 44/57/41 49/67/41 45/59/41 
f 45/59/41 49/67/41 46/61/41 
f 46/61/41 49/67/41 47/63/41 
f 47/63/41 49/67/41 48/65/41 
f 48/65/41 49/67/41 42/54/41 
f 33/68/33 50/69/42 51/70/43 34/71/34 
f 35/72/35 52/73/44 50/69/42 33/68/33 
f 36/74/36 53/75/45 52/73/44 35/72/35 
f 37/76/37 54/77/46 53/75/45 36/74/36 
f 38/78/38 55/79/47 54/77/46 37/76/37 
f 39/80/39 56/81/48 55/79/47 38/78/38 
f 40/82/40 57/83/49 56/81/48 39/80/39 
f 34/71/34 51/70/43 57/83/49 40/82/40 
f 51/70/43 50/69/42 58/84/50 
f 50/69/42 52/73/44 58/84/50 
f 52/73/44 53/75/45 58/84/50 
f 53/75/45 54/77/46 58/84/50 
f 54/77/46 55/79/47 58/84/50 
f 55/79/47 56/81/48 58/84/50 
f 56/81/48 57/83/49 58/84/50 
f 57/83/49 51/70/43 58/84/50 
# 48 polygons - 16 triangles

